<?xml version="1.0" standalone="no"?>
<!DOCTYPE svg PUBLIC "-//W3C//DTD SVG 20010904//EN"
 "http://www.w3.org/TR/2001/REC-SVG-20010904/DTD/svg10.dtd">
<svg version="1.0" xmlns="http://www.w3.org/2000/svg"
 width="1376.000000pt" height="1376.000000pt" viewBox="0 0 1376.000000 1376.000000"
 preserveAspectRatio="xMidYMid meet">
<metadata>
Created by potrace 1.14, written by Peter Selinger 2001-2017
</metadata>
<g transform="translate(0.000000,1376.000000) scale(0.100000,-0.100000)"
fill="##81a1c1" stroke="none">
<path d="M2940 9826 c-173 -50 -275 -172 -326 -391 -4 -16 -8 -999 -9 -2184
-1 -1791 1 -2164 12 -2215 30 -135 112 -250 215 -302 100 -51 98 -51 1076 -50
599 1 916 -2 921 -9 5 -8 7 -472 2 -547 -1 -17 -123 -18 -2416 -18 l-2415 0 0
-95 0 -95 6880 0 6880 0 0 95 0 95 -743 0 -744 0 -1 125 c-1 158 -20 222 -94
310 -39 47 -130 135 -140 135 -4 0 -13 6 -20 13 -36 34 -159 105 -318 183
-343 168 -408 203 -540 290 -123 81 -178 132 -186 171 -6 31 -5 31 52 48 33 9
66 18 74 20 129 26 479 215 481 260 2 40 -3 80 -11 85 -26 16 -108 254 -124
360 -35 219 -50 408 -45 560 0 18 -10 143 -15 185 -9 65 -47 188 -81 262 -180
390 -587 614 -1015 558 l-45 -6 -1 838 c0 461 -3 851 -7 866 -37 171 -164 323
-337 405 -143 67 164 62 -3550 61 -2722 0 -3374 -3 -3410 -13z m6780 -190 c54
-17 118 -46 144 -66 96 -74 157 -158 170 -231 5 -27 8 -394 5 -519 0 -8 0
-152 0 -320 0 -168 0 -312 0 -320 0 -8 0 -100 1 -205 0 -104 1 -231 0 -281 l0
-90 -42 -19 c-123 -53 -294 -200 -375 -320 -63 -94 -121 -217 -138 -294 -31
-136 -37 -185 -40 -346 -2 -99 -7 -211 -11 -250 -3 -38 -7 -83 -9 -100 -1 -16
-3 -30 -4 -30 -1 0 -4 -16 -6 -35 -7 -63 -23 -146 -44 -220 -7 -25 -14 -52
-16 -60 -2 -8 -8 -28 -15 -45 -6 -16 -11 -31 -11 -32 0 -2 -15 -32 -34 -68
-38 -70 -41 -90 -23 -129 22 -49 240 -176 388 -225 36 -12 73 -26 82 -31 10
-6 25 -10 35 -10 9 0 31 -5 49 -12 50 -18 41 -51 -31 -123 -92 -92 -246 -189
-515 -325 l-145 -73 -190 0 -190 -1 -80 46 c-44 25 -129 71 -190 103 -272 142
-336 183 -413 263 -65 68 -89 132 -64 175 9 15 20 27 24 27 4 0 8 6 8 13 0 7
9 23 20 35 11 12 20 24 20 26 0 3 15 30 34 59 79 123 181 348 243 535 55 167
111 421 117 533 1 24 5 50 10 57 4 6 4 12 -1 12 -4 0 -8 37 -9 83 -2 124 -10
172 -51 301 -59 182 -186 363 -342 486 -235 184 -577 251 -871 169 -312 -86
-562 -322 -680 -642 -10 -29 -21 -63 -24 -77 -3 -14 -8 -36 -11 -50 -16 -72
-19 -105 -19 -220 -1 -107 5 -189 18 -250 1 -8 6 -33 10 -55 30 -154 95 -369
166 -545 44 -112 150 -327 181 -372 11 -14 19 -29 19 -32 0 -3 18 -31 40 -63
47 -66 48 -86 8 -153 -26 -45 -99 -120 -117 -120 -5 0 -11 -4 -13 -9 -3 -8
-112 -81 -122 -81 -3 0 -31 -15 -63 -34 -81 -46 -134 -76 -281 -153 l-127 -67
-1565 -1 c-861 -1 -1570 3 -1576 7 -7 5 -23 11 -35 13 -79 14 -116 32 -155 71
-78 81 -72 -109 -73 2300 0 1183 2 2154 6 2158 4 3 8 17 10 29 12 77 92 177
164 203 53 19 6686 19 6749 0z m-2150 -1980 c25 -3 63 -11 85 -16 22 -6 47
-12 55 -14 151 -39 346 -188 443 -341 41 -64 83 -148 93 -185 2 -8 11 -40 19
-70 21 -75 24 -101 25 -205 1 -108 -9 -186 -44 -352 -61 -289 -222 -656 -378
-859 -44 -58 -51 -74 -54 -119 -6 -112 49 -246 141 -339 82 -84 124 -112 325
-218 96 -51 160 -86 240 -132 30 -18 62 -35 70 -39 8 -4 29 -16 45 -26 17 -10
73 -41 125 -67 52 -27 97 -52 100 -55 3 -4 24 -17 48 -29 38 -20 46 -21 75 -9
17 7 43 21 56 31 13 10 28 18 34 18 6 0 18 6 26 14 9 8 122 67 251 131 129 65
238 122 241 127 3 5 12 10 20 12 41 7 230 143 315 227 88 86 115 145 115 254
0 106 -29 146 -116 158 -90 13 -227 62 -347 125 -49 25 -88 50 -88 55 0 6 16
60 36 121 33 103 65 236 79 331 4 22 8 51 11 65 2 14 6 48 9 75 3 28 8 64 10
80 2 17 7 91 10 165 12 271 14 289 42 375 72 227 239 413 449 503 39 16 84 33
100 36 16 3 40 9 54 12 14 4 72 8 130 9 248 7 470 -103 627 -310 52 -68 127
-220 138 -280 5 -22 9 -44 11 -50 10 -38 15 -102 19 -250 5 -173 10 -264 21
-345 4 -25 8 -58 10 -75 13 -118 90 -379 124 -420 5 -6 6 -16 2 -21 -13 -21
-235 -130 -282 -139 -11 -2 -25 -7 -30 -10 -5 -3 -19 -8 -30 -11 -11 -2 -29
-6 -40 -9 -32 -8 -53 -12 -95 -19 -79 -14 -93 -41 -90 -172 2 -117 24 -165
120 -259 133 -130 240 -195 695 -420 74 -37 147 -76 162 -86 14 -11 29 -19 32
-19 8 0 87 -51 104 -67 7 -7 17 -13 21 -13 17 0 129 -121 147 -157 13 -29 18
-64 18 -148 l1 -110 -3171 -3 -3171 -2 2 77 c3 81 24 159 56 205 11 14 19 29
19 32 0 18 150 127 150 109 0 -4 4 -3 8 3 4 6 34 26 67 44 33 18 76 43 95 55
30 19 91 53 175 99 11 6 22 13 25 16 8 8 110 63 300 162 74 39 166 92 205 117
69 45 195 165 195 184 0 6 6 18 14 26 25 28 59 144 62 215 3 68 2 68 -45 130
-60 77 -121 170 -121 184 0 6 -4 12 -8 14 -10 4 -85 156 -119 243 -71 176
-136 392 -157 525 -42 256 -39 369 15 533 72 219 229 404 424 496 99 47 173
68 265 78 30 3 56 6 57 7 3 2 80 -2 123 -8z m-1740 -2975 c8 -1 -3 -13 -24
-27 -88 -60 -159 -163 -199 -289 -21 -66 -26 -98 -29 -184 l-2 -71 -278 0
-278 0 1 284 c0 255 2 285 16 288 15 3 754 2 793 -1z"/>
</g>
</svg>
