<?xml version="1.0" standalone="no"?>
<!DOCTYPE svg PUBLIC "-//W3C//DTD SVG 20010904//EN"
 "http://www.w3.org/TR/2001/REC-SVG-20010904/DTD/svg10.dtd">
<svg version="1.0" xmlns="http://www.w3.org/2000/svg"
 width="700.000000pt" height="700.000000pt" viewBox="0 0 700.000000 700.000000"
 preserveAspectRatio="xMidYMid meet">
<metadata>
Created by potrace 1.14, written by Peter Selinger 2001-2017
</metadata>
<g transform="translate(0.000000,700.000000) scale(0.100000,-0.100000)"
fill="#000000" stroke="none">
<path d="M1860 6991 c0 -6 -41 -122 -91 -256 l-92 -244 -51 -20 c-28 -11 -87
-34 -131 -50 -226 -81 -315 -116 -315 -121 0 -3 78 -34 173 -69 94 -35 206
-76 248 -92 l77 -30 65 -177 c36 -97 78 -210 93 -250 15 -40 30 -70 33 -65 8
10 26 56 117 305 l69 187 80 30 c44 17 158 59 252 93 153 56 199 78 161 78 -6
0 -82 27 -167 59 -86 33 -194 73 -241 91 l-85 32 -33 91 c-18 51 -37 101 -42
112 -5 11 -32 83 -60 160 -51 139 -60 159 -60 136z"/>
<path d="M3250 5584 c-339 -43 -667 -168 -945 -362 -420 -292 -724 -735 -844
-1227 -28 -119 -35 -155 -51 -290 -9 -74 -7 -425 2 -441 3 -5 8 -36 12 -70 8
-80 57 -277 96 -389 48 -138 176 -391 237 -470 4 -6 23 -33 42 -60 58 -84 129
-165 242 -276 169 -166 332 -281 554 -389 99 -49 316 -131 383 -145 9 -2 49
-10 87 -19 164 -35 270 -44 475 -41 166 3 328 21 435 49 11 3 40 10 65 16 124
30 368 127 465 185 32 19 59 35 61 35 3 0 39 23 82 51 374 248 656 596 816
1006 88 228 127 416 151 743 3 41 8 94 11 118 3 23 3 42 -1 42 -4 0 -70 -19
-148 -41 -326 -95 -381 -104 -592 -103 -160 1 -250 17 -391 70 -358 134 -631
437 -724 804 -26 105 -34 177 -33 306 2 217 53 378 213 669 18 33 51 94 73
135 22 41 44 79 48 85 5 5 9 13 9 18 0 12 -720 5 -830 -9z m130 -481 c0 -3
-16 -50 -35 -104 -60 -166 -76 -242 -75 -364 0 -60 2 -119 4 -130 2 -11 6 -41
10 -66 12 -80 16 -102 37 -183 81 -320 289 -643 549 -852 19 -16 37 -31 40
-34 15 -18 186 -123 255 -158 119 -60 257 -113 327 -126 13 -2 41 -9 63 -14
120 -31 313 -45 415 -30 34 5 64 7 67 5 8 -9 -46 -155 -92 -252 -108 -223
-282 -444 -460 -585 -216 -171 -509 -296 -760 -326 -22 -3 -51 -7 -65 -10 -32
-5 -274 -5 -320 0 -98 13 -120 16 -180 30 -118 27 -146 35 -241 71 -374 143
-698 436 -880 796 -72 144 -141 362 -155 493 -3 33 -8 69 -10 80 -6 29 -6 300
0 317 3 8 8 37 11 64 9 81 15 113 45 214 79 274 203 483 405 686 189 191 387
315 638 401 145 50 407 100 407 77z"/>
<path d="M693 5575 c-6 -11 -48 -121 -93 -245 -45 -124 -86 -229 -91 -235 -4
-5 -118 -50 -253 -100 -135 -49 -246 -93 -246 -96 0 -4 10 -9 23 -12 12 -3 69
-23 127 -45 58 -22 157 -59 220 -82 63 -23 120 -48 126 -54 6 -6 51 -120 100
-253 49 -134 91 -243 94 -243 3 0 36 85 73 188 104 283 109 296 121 308 6 6
52 26 101 43 50 18 128 48 175 66 47 18 115 43 153 56 37 13 67 26 67 29 0 3
-109 45 -243 94 -133 49 -247 94 -253 100 -10 9 -48 108 -184 481 -7 19 -7 19
-17 0z"/>
</g>
</svg>
